<?xml version="1.0" encoding="utf-8"?>
<svg version="1.1" id="Capa_1" xmlns="http://www.w3.org/2000/svg" xmlns:xlink="http://www.w3.org/1999/xlink" x="0px" y="0px"
	 viewBox="0 0 396.9 141.7" style="enable-background:new 0 0 396.9 141.7;" xml:space="preserve">
<style type="text/css">
	.st0{fill:currentColor;}
</style>
<g>
	<path class="st0" d="M0.2,140.9c1.3-3.7,2.6-7.3,3.8-11c0.4-1.2,0.9-1.7,2.2-1.9c4.3-0.5,8.6-1.2,12.9-1.7c0.9-0.1,1.2-0.3,0.7-1.2
		c-1.3-2.9-1.5-6-1.7-9c-0.7-8.5-0.1-16.9,0.9-25.3c0.1-0.7,0.2-1.4-0.6-1.9c-4-2.3-4.3-6-3.6-10c0.3-1.3,0.7-2.5,1.5-3.6
		c0.9-1.3,1.4-1.4,2.8-0.7c2,1,2,1,2.3-1.2c1-5.7,2-11.4,3-17.1c0-0.2,0.2-0.5-0.1-0.8c-1.3,0.9-2.6,1.8-3.9,2.8
		c-2,1.4-2.5,1.3-3.9-0.7c-2.6-3.8-1.8-8.7,1.9-11.5c2.6-2,5.4-3.5,8.3-4.9c0.9-0.4,1.4-1.1,1.6-2c0.6-2.4,1.2-4.9,1.9-7.3
		c0.6-2.2,2-3.1,4.2-2.6c2,0.4,3.8,1.4,5.3,2.8c0.8,0.7,1.1,1.7,0.9,2.7c-0.2,0.9,0.1,1,0.9,0.8c3.4-1,6.8-1.8,10.3-2.2
		c2.5-0.3,5-0.4,7.5,0c6.2,1,9.7,4.6,10.6,10.8c0.8,5.9,0.1,11.7-1,17.5c-1.4,7.5-3.9,14.8-8,21.3c-3,4.7-6.8,8.6-12.1,10.7
		c-0.5,0.2-0.7,0.4-0.4,1c3.4,7.1,6.9,14.1,12.7,19.6c1.9,1.8,2.6,3.4,1.7,5.7c-0.3,0.8,0.3,0.6,0.7,0.6c3-0.4,6.1-0.8,9.3-1.3
		c-3.5-2.6-5-6.2-5.7-10.2c-0.5-2.7-0.5-5.5-0.3-8.2c0.4-6,1.8-11.8,4.3-17.3c2.2-4.8,5.1-9.1,9.7-11.9c2.4-1.5,5.1-1.9,7.8-1.7
		c4.1,0.4,6.8,3.6,6.9,8.3c0.2,8.1-4.3,18.3-15.3,20.9c-0.9,0.2-1.2,0.5-1.1,1.5c0.2,1.3,0.3,2.6,0.7,3.9c1,3.2,3.1,4.4,6.4,3.6
		c3.2-0.8,5.6-2.9,7.6-5.3c3-3.5,5.2-7.4,6.6-11.7c0.9-2.9,1.2-5.9,1.9-8.9c1-4.4,2.1-8.8,3.2-13.2c0.3-1.2,1-1.6,2.2-1.6
		c1.9,0.1,3.8,0.4,5.6,1.2c1.6,0.8,2,1.5,1.7,3.3c-0.8,4.6-1.7,9.3-2.3,13.9c0,0.4-0.1,0.7,0,1.1c1.1-3.1,2.2-6.2,3.7-9.2
		c1.5-3.2,3.3-6.3,5.7-9c1.8-2,3.9-3.8,6.8-4c3-0.2,5.8,0.7,8.1,2.6c1,0.8,1.2,1.8,0.9,3.1c-2,8.4-3.3,16.9-3.2,25.6
		c0,1,0.1,1.9,0.4,2.8c0.3,1.3,1,1.5,2,0.7c1-0.8,1.7-1.9,2.4-2.9c2.4-3.5,4.3-7.3,5.7-11.3c0.7-2,0.6-4.1,1-6.1
		c0.7-3.7,1.3-7.4,1.9-11.2c-1.1,0.1-1.9,0.8-2.8,1.1c-2,0.7-2.8,0.2-2.8-1.9c0-2.1,0.8-3.7,2.8-4.6c0.7-0.3,1.4-0.8,2.2-1
		c1.8-0.5,2.6-1.6,2.9-3.4c0.5-2.4,1.2-4.8,1.8-7.2c0.6-2.5,1.4-3.2,4-3.3c2-0.1,3.9,0.2,5.4,1.7c0.7,0.7,1,1.6,0.7,2.6
		c-0.5,1.7-0.8,3.4-1.3,5.1c-0.2,0.9-0.1,1.3,0.9,1.3c1.1,0,2.1,0.2,3.2,0.4c2.2,0.4,3.7,2.3,3.6,4.3c-0.1,2.2-1.8,3.9-4,4.2
		c-1.5,0.2-2.9,0-4.1-0.9c-0.8-0.6-1.1-0.3-1.2,0.6c-0.7,4.3-1.3,8.5-1.7,12.8c-0.6,5.1-1,10.2-0.8,15.3c0,0.6,0.1,1.2,0.3,1.8
		c0.2,0.8,0.6,0.9,1.2,0.4c0.8-0.6,1.5-1.3,2.1-2.1c2.9-4,5.1-8.3,6.7-12.9c0.6-1.6,1.5-2,3.3-1.5c1.7,0.5,2.3,1.4,1.9,3
		c-2.1,8.2-5.7,15.8-11,22.4c-0.2,0.3-0.5,0.5-0.6,1c3.5-0.5,7-0.9,10.5-1.4c5-0.7,10-1.4,15.1-2.1c1.1-0.1,1-0.4,0.6-1.3
		c-2.7-5-3.5-10.3-2.9-15.9c0.7-6.9,2.8-13.4,6.3-19.4c1.6-2.7,3.5-5.2,6-7.2c5.4-4.3,10.8-3.9,15.4,1.4c0,0.1,0.1,0.1,0.3,0.2
		c0.4-1.5,0.9-3,1.2-4.5c0.3-1.2,1-1.7,2.2-1.8c1.7-0.1,3.4,0.1,4.9,0.7c2.2,0.9,2.8,2.1,2.4,4.4c-1.6,8.6-2.9,17.1-3,25.9
		c0,1.2,0.1,2.3,0.4,3.4c0.3,1.4,0.8,1.5,1.9,0.7c0.9-0.7,1.6-1.6,2.2-2.5c2.6-3.8,4.7-7.9,6.2-12.3c0.6-1.6,1.5-2,3.3-1.5
		c1.6,0.4,2.3,1.4,1.9,3c-1.5,5.9-3.9,11.4-7,16.6c-0.9,1.5-1.9,3-3,4.7c13-1.8,25.9-3.5,38.7-5.3c0.1-0.4-0.2-0.5-0.4-0.6
		c-6-2.8-9.6-7.7-11.8-13.8c-1.6-4.3-2.3-8.8-2.4-13.4c-0.4-17.8,4.6-34.1,14.6-48.8c3.6-5.3,8-9.8,13.7-13c4.7-2.6,9.7-4,15.1-3
		c6.5,1.2,11.3,6.2,12.6,13c0.8,4,0.5,7.9-1.5,11.5c-2.8,4.9-8.1,6.1-13.3,3c-1.6-1-1.7-2.1-0.3-3.4c2.2-2,3.6-4.4,4-7.3
		c0.5-4.2-2.1-7.5-6.8-6.3c-2.4,0.6-4.4,2-6.2,3.7c-4.6,4.3-7.6,9.6-10.2,15.2c-3.8,8.2-6.3,16.8-7.4,25.8
		c-0.6,5.1-0.7,10.3,0.6,15.3c2.2,8.2,8.2,11.7,16.4,9.4c4-1.1,7.5-3,10.7-5.5c1.7-1.3,2.5-1.3,3.9,0.4c3.5,4.5,3.7,8.6-0.3,12.2
		c-0.5,0.4-0.9,0.8-1.6,1.5c5.6-0.8,11-1.5,16.3-2.2c0-0.1,0-0.2,0-0.3c-4.5-5.1-5.7-11.2-5.3-17.7c0.4-7.4,2.7-14.3,6.4-20.6
		c1.9-3.2,4.1-6,7.2-8c4.9-3.3,9.8-2.6,13.7,1.7c0.2,0.2,0.4,0.4,0.7,0.8c0.3-1.3,0.6-2.5,0.9-3.7c0.7-2.6,0.9-2.8,3.6-2.7
		c1.5,0,3,0.3,4.4,1c1.6,0.8,2.1,1.9,1.8,3.7c-1.6,8.4-2.9,16.7-3,25.3c0,1.5-0.1,3,0.3,4.4c0.3,1.3,0.9,1.5,1.9,0.6
		c1.4-1.2,2.4-2.7,3.3-4.2c4.8-7.8,7.4-16.4,9.3-25.3c0.3-1.5,0.5-3.1,0.8-4.6c0.1-0.7,0-1.1-0.6-1.5c-2-1.4-2.8-4.1-2-6.4
		c0.6-1.8,2.3-2.7,4.3-2.4c1.5,0.2,2.4,1.2,2.6,3.1c0.1,1,0.5,1.3,1.3,1.5c2.2,0.5,4.4,0.4,6.6,0.6c0.9,0.1,1.8,0.2,2.6,0.3
		c4.9,1,7.3,4,7.5,9.2c0.2,3.9-0.8,7.7-1.7,11.4c-0.8,3.4-1.9,6.8-2.5,10.4c-0.1,0.8-0.2,1.7-0.1,2.5c0.1,1.2,1,1.8,2.2,1.5
		c1.2-0.3,2.2-1,3-1.9c3-3.1,4.9-6.8,6.6-10.6c0.5-1.1,0.9-2.1,1.3-3.2c0.2-0.6,0.7-0.9,1.3-1.1c2.5-0.5,4.2,1.2,3.6,3.6
		c-2.3,8.4-6.3,15.9-12.4,22.1c-0.2,0.2-0.5,0.4-0.8,0.5c0.1,0.1,0.1,0.2,0.2,0.3c1.6-0.2,3.1-0.4,4.7-0.6c3.7-0.5,7.4-1,11.1-1.6
		c0.8-0.1,1.3,0,1.4,1c0,0.2,0.1,0.5,0.1,0.7c0.5,2.7,0.5,2.7-2.3,3.2c-14.2,2.2-28.4,4.5-42.6,6.7c-16.5,2.6-33.1,5.2-49.6,7.8
		c-13.9,2.2-27.8,4.4-41.8,6.6c-13.5,2.1-27,4.2-40.5,6.3c-12.4,2-24.8,3.9-37.3,5.9c-14.5,2.3-29,4.5-43.5,6.8
		c-11.4,1.8-22.7,3.6-34.1,5.4c-12,1.9-24,3.7-36,5.6c-10.9,1.7-21.8,3.5-32.6,5.2c-10.9,1.7-21.9,3.4-32.8,5.1
		c-0.6,0.1-1.2,0.3-1.9,0.4C1.2,141.4,0.1,142.4,0.2,140.9z M58.9,52.1c0-1.9-0.1-3.8-0.7-5.7c-1-3.1-3.4-4.6-7-4.3
		c-4.4,0.4-8.4,2.3-12.3,4.2c-0.9,0.5-1.3,1.1-1.5,2.1c-1.1,5.6-2,11.1-2.8,16.7c-0.7,5.4-1.3,10.8-1.8,16.3
		c-0.1,1.1,0.3,1.5,1.4,1.8c6.4,1.6,11.7,0,15.8-5.2C56.1,70.5,58.4,61.6,58.9,52.1z M344.2,81.9c0.4,0.1,0.8,0,1.2,0
		c4.3-0.6,8.7-1.2,13-1.8c1.9-0.2,1.9-0.2,1.3-2c-1.1-3.1-0.6-6.3-0.1-9.5c1.1-6.3,3.2-12.3,5.2-18.3c1-3,2.2-5.9,2.9-9
		c0.4-1.8-0.3-3.2-1.8-4.2c-1.2-0.7-2.5-1-3.8-1c-2.3-0.2-2.1,0-2.1,1.7c0,0.4-0.1,0.9-0.2,1.3c-0.9,7.8-2.3,15.5-5,22.9
		c-2.5,7-5.7,13.6-10.6,19.3C344.3,81.4,344.2,81.6,344.2,81.9z M50.9,122c-1.3-1.4-2.2-2.7-3.1-4c-4-6.4-7.5-13.1-10.1-20.2
		c-0.9-2.4-2-3.6-4.5-3.5c-0.1,0-0.2,0-0.2,0c-0.6-0.2-0.9,0.1-0.9,0.7c0,1.6-0.2,3.3-0.2,4.9c-0.1,5.1,0,10.3,0.5,15.4
		c0.2,2.7,0.6,5.3,1.4,7.9c0.2,0.8,0.5,1.1,1.4,1c3.4-0.5,6.7-0.9,10.1-1.4C47.1,122.5,48.9,122.3,50.9,122z M209.3,73.3
		c0-2.4-0.1-4.7-1-7c-0.9-2.2-2.8-2.9-4.9-1.7c-1.3,0.7-2.2,1.8-2.9,3c-3.5,6.2-4.7,12.9-4.6,19.9c0,1.7,0.2,3.4,1,5
		c0.9,1.7,2.2,2.1,3.9,1c1-0.6,1.8-1.5,2.5-2.4C207.2,85.8,209.2,79.9,209.3,73.3z M330.2,54.6c-0.1-1.5-0.2-2.9-0.3-4.3
		c-0.1-0.7-0.3-1.4-0.4-2.1c-1-3.3-3.6-4.1-6.2-1.7c-1.5,1.3-2.4,3-3.2,4.9c-1.8,4.2-2.7,8.5-3.1,13c-0.2,2.9-0.3,5.9,0.7,8.8
		c0.9,2.3,2.5,2.8,4.5,1.3c0.5-0.4,1-0.9,1.5-1.4C327.8,67.6,329.8,61.4,330.2,54.6z M126.3,75.5c-0.7,0.3-1,0.8-1.3,1.2
		c-4.8,6.3-8.2,13.4-10.4,21c-1.3,4.7-2.1,9.6-2,14.5c0,0.6-0.1,1.4,1,1.2c3.8-0.5,7.6-1.1,11.4-1.6c0.8-0.1,0.8-0.4,0.5-1
		c-0.8-1.5-1.3-3.2-1.6-4.9c-0.9-5.8-0.6-11.5,0.1-17.3C124.5,84.3,125.3,80,126.3,75.5z M88.4,80.7c0-0.6,0-1-0.1-1.5
		c-0.3-1.4-0.9-1.7-2.2-1.1c-1,0.5-1.7,1.2-2.2,2.1c-2.4,3.6-3.5,7.7-4.2,11.8c-0.1,0.8,0.2,0.9,0.9,0.7c1.3-0.4,2.5-1,3.5-2
		C86.9,88,88.1,84.5,88.4,80.7z M99.4,106.8c-0.1,0-0.2-0.1-0.3-0.1c-2.7,3.8-5.8,7.2-9.7,9.7c0.2,0.1,0.3,0.2,0.3,0.2
		c3.5-0.5,7-0.9,10.4-1.4c0.7-0.1,0.4-0.4,0.2-0.7c-0.7-1.3-0.9-2.7-0.9-4.2C99.4,109.2,99.4,108,99.4,106.8z M138.7,110
		c2.7-0.4,5.3-0.7,8-1.1c0.6-0.1,0.5-0.5,0.3-0.9c-1.2-2.4-1.6-5-1.9-7.8C143.2,103.7,141.2,106.9,138.7,110z M323,84.5
		c0,0.1,0.1,0.2,0.1,0.3c2.2-0.3,4.3-0.5,6.5-0.9c2-0.3,2-0.3,1.2-2.2c-0.3-0.6-0.5-1.3-0.7-1.9c-0.3-1.1-0.5-2.1-0.8-3.4
		C327.5,79.5,325.5,82.2,323,84.5z M208.6,95.4c-1.2,1.8-2.2,3.4-3.4,4.9c-0.3,0.4,0,0.6,0.4,0.5c1.2-0.1,2.4-0.3,3.7-0.5
		c0.4-0.1,0.5-0.3,0.4-0.7C209.3,98.4,209,97,208.6,95.4z"/>
</g>
</svg>
